<svg width="24" height="24" viewBox="0 0 24 24" fill="none" xmlns="http://www.w3.org/2000/svg">
<g clip-path="url(#clip0_305_1533)">
<path d="M12.0001 16.2824C14.367 16.2824 16.2858 14.3636 16.2858 11.9967C16.2858 9.62972 14.367 7.71094 12.0001 7.71094C9.63313 7.71094 7.71436 9.62972 7.71436 11.9967C7.71436 14.3636 9.63313 16.2824 12.0001 16.2824Z" stroke="#03171D" stroke-width="1.5" stroke-linecap="round" stroke-linejoin="round"/>
<path d="M23.1429 11.9983L19.1315 14.9469L19.8858 19.884L14.9486 19.1298L12 23.1412L9.05146 19.1298L4.11432 19.884L4.86861 14.9469L0.857178 11.9983L4.86861 9.04975L4.11432 4.11261L9.05146 4.8669L12 0.855469L14.9486 4.8669L19.8858 4.11261L19.1315 9.04975L23.1429 11.9983Z" stroke="#03171D" stroke-width="1.5" stroke-linecap="round" stroke-linejoin="round"/>
</g>
<defs>
<clipPath id="clip0_305_1533">
<rect width="24" height="24" fill="white"/>
</clipPath>
</defs>
</svg>
