<svg width="20" height="20" viewBox="0 0 20 20" fill="none" xmlns="http://www.w3.org/2000/svg">
<path fill-rule="evenodd" clip-rule="evenodd" d="M3.70918 13.2031C4.151 13.2031 4.50918 13.5613 4.50918 14.0031V15.6031C4.50918 15.8153 4.59345 16.0187 4.74351 16.1688C4.89352 16.3188 5.097 16.4031 5.30918 16.4031H14.9092C15.1213 16.4031 15.3248 16.3189 15.4748 16.1688C15.6249 16.0187 15.7092 15.8153 15.7092 15.6031V14.0031C15.7092 13.5613 16.0673 13.2031 16.5092 13.2031C16.951 13.2031 17.3092 13.5613 17.3092 14.0031V15.6031C17.3092 16.2396 17.0564 16.8501 16.6062 17.3002C16.1561 17.7502 15.5456 18.0031 14.9092 18.0031H5.30918C4.67268 18.0031 4.0622 17.7503 3.61211 17.3002C3.16204 16.8501 2.90918 16.2396 2.90918 15.6031V14.0031C2.90918 13.5613 3.26735 13.2031 3.70918 13.2031Z" fill="#03171D"/>
<path fill-rule="evenodd" clip-rule="evenodd" d="M5.54339 8.63276C5.85582 8.32033 6.36235 8.32033 6.67477 8.63276L10.1091 12.0671L13.5434 8.63276C13.8558 8.32033 14.3623 8.32033 14.6747 8.63276C14.9872 8.94516 14.9872 9.45172 14.6747 9.76412L10.6747 13.7641C10.3623 14.0765 9.85579 14.0765 9.54339 13.7641L5.54339 9.76412C5.23098 9.45172 5.23098 8.94516 5.54339 8.63276Z" fill="#03171D"/>
<path fill-rule="evenodd" clip-rule="evenodd" d="M10.1092 2.80078C10.551 2.80078 10.9092 3.15896 10.9092 3.60078V13.2008C10.9092 13.6426 10.551 14.0008 10.1092 14.0008C9.66736 14.0008 9.3092 13.6426 9.3092 13.2008V3.60078C9.3092 3.15896 9.66736 2.80078 10.1092 2.80078Z" fill="#03171D"/>
</svg>
